<svg width="1280" height="720" xmlns="http://www.w3.org/2000/svg" xmlns:xlink="http://www.w3.org/1999/xlink" overflow="hidden"><g><rect x="0" y="0" width="1280" height="720" fill="#FFFFFF"/><path d="M440 210.5C440 173.221 470.892 143 509 143 547.108 143 578 173.221 578 210.5 578 247.779 547.108 278 509 278 470.892 278 440 247.779 440 210.5Z" stroke="#042433" stroke-width="2" stroke-miterlimit="8" fill="#156082" fill-rule="evenodd"/><path d="M530.223 231.074C516.627 250.978 498.736 251.983 482.515 233.754" stroke="#000000" stroke-width="2" stroke-miterlimit="8" fill="none" fill-rule="evenodd"/><path d="M475 194.5C475 190.91 477.686 188 481 188 484.314 188 487 190.91 487 194.5 487 198.09 484.314 201 481 201 477.686 201 475 198.09 475 194.5Z" stroke="#000000" stroke-width="2" stroke-miterlimit="8" fill-rule="evenodd"/><path d="M523 190C523 186.686 525.686 184 529 184 532.314 184 535 186.686 535 190 535 193.314 532.314 196 529 196 525.686 196 523 193.314 523 190Z" stroke="#000000" stroke-width="2" stroke-miterlimit="8" fill-rule="evenodd"/></g></svg>